<?xml version="1.0" encoding="UTF-8"?>
<svg version="1.1" xmlns="http://www.w3.org/2000/svg" width="32" height="32">
<path d="M0 0 C0.103125 0.598125 0.20625 1.19625 0.3125 1.8125 C0.81522403 4.0710159 0.81522403 4.0710159 2.52734375 5.34765625 C4.46625133 7.52314141 4.34345997 8.75577895 4.25 11.625 C4.23453125 12.42164063 4.2190625 13.21828125 4.203125 14.0390625 C4 16 4 16 3 17 C2.90047122 18.58075127 2.87031398 20.16612545 2.875 21.75 C2.87242188 22.61109375 2.86984375 23.4721875 2.8671875 24.359375 C2.95626867 27.41666057 2.95626867 27.41666057 4 32 C-6.56 32 -17.12 32 -28 32 C-27.01 29.03 -26.02 26.06 -25 23 C-24.40196227 20.65460924 -23.8349317 18.30088149 -23.3125 15.9375 C-23.06113281 14.81214844 -22.80976563 13.68679687 -22.55078125 12.52734375 C-22.36902344 11.69332031 -22.18726563 10.85929688 -22 10 C-21.01 10 -20.02 10 -19 10 C-19 9.34 -19 8.68 -19 8 C-13.555 7.505 -13.555 7.505 -8 7 C-8 6.34 -8 5.68 -8 5 C-7.34 5 -6.68 5 -6 5 C-6 4.01 -6 3.02 -6 2 C-2.25 0 -2.25 0 0 0 Z M-17 23 C-16.67 25.31 -16.34 27.62 -16 30 C-14.02 30 -12.04 30 -10 30 C-9.01 26.7 -8.02 23.4 -7 20 C-11.44849969 19.6966932 -13.68152292 19.93679039 -17 23 Z M-3 22 C-5.36214538 24.64846603 -6.87172132 26.61516396 -8 30 C-5.36 30 -2.72 30 0 30 C-0.33 27.36 -0.66 24.72 -1 22 C-1.66 22 -2.32 22 -3 22 Z M-22 24 C-22.66 25.98 -23.32 27.96 -24 30 C-22.02 30 -20.04 30 -18 30 C-18.66 28.02 -19.32 26.04 -20 24 C-20.66 24 -21.32 24 -22 24 Z " fill="#573E19" transform="translate(28,0)"/>
<path d="M0 0 C5.28 0 10.56 0 16 0 C16.33 1.32 16.66 2.64 17 4 C11.39 4 5.78 4 0 4 C0 2.68 0 1.36 0 0 Z " fill="#CBA063" transform="translate(9,8)"/>
<path d="M0 0 C0 0.66 0 1.32 0 2 C-10.56 2 -21.12 2 -32 2 C-32 1.34 -32 0.68 -32 0 C-27.7643915 -0.16752496 -23.52859426 -0.32809332 -19.29248047 -0.48217773 C-17.85100177 -0.5355959 -16.40959259 -0.59092518 -14.96826172 -0.64819336 C-12.89826447 -0.73010997 -10.82811573 -0.80518359 -8.7578125 -0.87890625 C-6.88826904 -0.94960327 -6.88826904 -0.94960327 -4.98095703 -1.02172852 C-2 -1 -2 -1 0 0 Z " fill="#5C4420" transform="translate(32,30)"/>
</svg>
